<svg width="512" height="512" viewBox="0 0 512 512" fill="none" xmlns="http://www.w3.org/2000/svg">
<rect width="512" height="512" fill="#1F2641"/>
<g clip-path="url(#clip0_1111_106)">
<path d="M232.712 410.033H232.712C195.453 410.065 159.518 396.216 131.917 371.187C131.879 371.152 131.856 371.104 131.854 371.052C131.851 371.001 131.869 370.95 131.904 370.912C131.938 370.874 131.987 370.851 132.038 370.849C132.09 370.846 132.14 370.864 132.178 370.898L132.513 370.528L132.177 370.898C159.707 395.863 195.549 409.677 232.713 409.644C284.873 409.644 332.473 383.159 360.038 338.8L360.039 338.799C360.052 338.777 360.07 338.758 360.09 338.743C360.111 338.728 360.135 338.718 360.16 338.712C360.184 338.706 360.21 338.705 360.235 338.709C360.261 338.713 360.285 338.723 360.307 338.736C360.328 338.75 360.347 338.767 360.362 338.788C360.377 338.809 360.387 338.832 360.393 338.857C360.399 338.882 360.4 338.908 360.396 338.933C360.391 338.958 360.382 338.982 360.369 339.004L360.368 339.006C346.901 360.737 328.105 378.668 305.765 391.098C283.424 403.528 258.278 410.046 232.712 410.033Z" fill="#F5F5FF" stroke="#F5F5FF"/>
<path d="M352.926 339.747L353.279 341.091L359.9 339.343L361.161 346.074L362.527 345.817L360.99 337.619L352.926 339.747Z" fill="#F5F5FF"/>
<path d="M139.275 369.811L139.312 371.201L132.466 371.374L133.14 378.19L131.756 378.325L130.938 370.024L139.275 369.811Z" fill="#F5F5FF"/>
<path d="M169.069 242.629V317.43C169.069 317.677 169.02 317.922 168.926 318.15C168.831 318.379 168.693 318.586 168.518 318.761C168.343 318.936 168.136 319.075 167.907 319.169C167.679 319.264 167.434 319.313 167.187 319.313H40.2074C40.117 319.314 40.0267 319.307 39.9375 319.292C39.4896 319.227 39.08 319.004 38.7836 318.662C38.4873 318.32 38.3242 317.882 38.3242 317.43V242.629C38.3241 242.13 38.5222 241.651 38.8752 241.298C39.2281 240.945 39.7069 240.746 40.2061 240.746H167.186C167.433 240.746 167.678 240.795 167.906 240.889C168.134 240.984 168.342 241.122 168.517 241.297C168.692 241.472 168.831 241.679 168.925 241.908C169.02 242.136 169.069 242.381 169.069 242.628V242.629Z" fill="#E6E6E6"/>
<path d="M70.3321 285.221C79.4567 285.221 86.8536 277.824 86.8536 268.7C86.8536 259.575 79.4567 252.178 70.3321 252.178C61.2075 252.178 53.8105 259.575 53.8105 268.7C53.8105 277.824 61.2075 285.221 70.3321 285.221Z" fill="#6C63FF"/>
<path d="M122.142 319.613H41.0919C40.9905 319.614 40.8891 319.606 40.7891 319.589L79.1218 253.191C79.3557 252.777 79.6953 252.433 80.1057 252.194C80.5161 251.955 80.9827 251.829 81.4578 251.829C81.9329 251.829 82.3995 251.955 82.8099 252.194C83.2203 252.433 83.5599 252.777 83.7938 253.191L109.52 297.749L110.752 299.881L122.142 319.613Z" fill="#3F3D56"/>
<path opacity="0.2" d="M122.141 319.613H94.4688L108.053 299.881L109.031 298.46L109.519 297.749L110.752 299.881L122.141 319.613Z" fill="black"/>
<path d="M167.269 319.613H97.168L110.752 299.881L111.73 298.46L129.431 272.746C130.592 271.06 133.384 270.955 134.748 272.428C134.84 272.528 134.925 272.634 135.003 272.746L167.269 319.613Z" fill="#3F3D56"/>
<path d="M176.213 237.905C175.791 236.74 175.022 235.732 174.008 235.019C172.994 234.306 171.785 233.923 170.546 233.921H37.021C36.2302 233.921 35.4471 234.076 34.7165 234.379C33.9859 234.681 33.322 235.125 32.7628 235.684C32.2037 236.243 31.7602 236.907 31.4577 237.637C31.1552 238.368 30.9997 239.151 31 239.942V345.487C31.0023 347.083 31.6373 348.613 32.766 349.742C33.8947 350.87 35.4248 351.505 37.021 351.508H170.546C172.142 351.505 173.672 350.87 174.801 349.742C175.929 348.613 176.564 347.083 176.567 345.487V239.942C176.568 239.248 176.448 238.558 176.213 237.905ZM175.858 345.487C175.857 346.895 175.296 348.245 174.3 349.241C173.305 350.237 171.954 350.798 170.546 350.799H37.021C35.6125 350.798 34.2622 350.237 33.2663 349.241C32.2703 348.245 31.71 346.895 31.7083 345.487V239.942C31.71 238.533 32.2703 237.183 33.2663 236.187C34.2622 235.191 35.6125 234.631 37.021 234.629H170.546C171.954 234.631 173.305 235.191 174.3 236.187C175.296 237.183 175.857 238.533 175.858 239.942V345.487Z" fill="#3F3D56"/>
<path d="M469.132 146.783V265.167C469.133 265.559 469.056 265.946 468.906 266.308C468.756 266.669 468.537 266.998 468.26 267.275C467.984 267.551 467.655 267.771 467.294 267.921C466.933 268.071 466.545 268.148 466.154 268.148H265.187C265.043 268.149 264.901 268.138 264.759 268.115C264.051 268.013 263.402 267.659 262.933 267.117C262.464 266.576 262.206 265.884 262.206 265.167V146.783C262.206 146.392 262.283 146.004 262.432 145.643C262.582 145.281 262.801 144.952 263.078 144.676C263.355 144.399 263.683 144.179 264.044 144.029C264.406 143.88 264.793 143.802 265.185 143.802H466.152C466.543 143.802 466.931 143.879 467.292 144.029C467.654 144.178 467.982 144.398 468.259 144.674C468.536 144.951 468.755 145.279 468.905 145.641C469.055 146.002 469.132 146.39 469.132 146.781V146.783Z" fill="#E6E6E6"/>
<path d="M312.864 214.191C327.305 214.191 339.012 202.485 339.012 188.043C339.012 173.602 327.305 161.895 312.864 161.895C298.423 161.895 286.716 173.602 286.716 188.043C286.716 202.485 298.423 214.191 312.864 214.191Z" fill="#6C63FF"/>
<path d="M394.862 268.623H266.587C266.426 268.625 266.266 268.612 266.107 268.585L326.776 163.498C327.146 162.844 327.683 162.299 328.333 161.921C328.983 161.542 329.721 161.342 330.473 161.342C331.225 161.342 331.963 161.542 332.613 161.921C333.262 162.299 333.8 162.844 334.17 163.498L374.886 234.019L376.837 237.394L394.862 268.623Z" fill="#3F3D56"/>
<path opacity="0.2" d="M394.862 268.622H351.066L372.566 237.394L374.113 235.144L374.887 234.019L376.837 237.394L394.862 268.622Z" fill="black"/>
<path d="M466.286 268.623H355.338L376.837 237.394L378.385 235.144L406.4 194.447C408.237 191.78 412.656 191.614 414.815 193.944C414.96 194.103 415.095 194.271 415.218 194.447L466.286 268.623Z" fill="#3F3D56"/>
<path d="M480.44 139.306C479.773 137.461 478.555 135.866 476.95 134.738C475.346 133.61 473.433 133.003 471.471 133H260.145C258.893 133 257.654 133.246 256.497 133.724C255.341 134.203 254.29 134.905 253.405 135.79C252.52 136.675 251.818 137.726 251.34 138.882C250.861 140.038 250.615 141.278 250.615 142.529V309.573C250.619 312.099 251.624 314.521 253.41 316.307C255.197 318.093 257.618 319.098 260.145 319.102H471.471C473.997 319.098 476.419 318.093 478.205 316.307C479.992 314.521 480.997 312.099 481 309.573V142.529C481.002 141.431 480.813 140.34 480.44 139.306ZM479.879 309.573C479.877 311.802 478.99 313.939 477.414 315.515C475.837 317.091 473.7 317.978 471.471 317.981H260.145C257.915 317.978 255.778 317.091 254.202 315.515C252.626 313.939 251.739 311.802 251.736 309.573V142.529C251.739 140.3 252.626 138.163 254.202 136.587C255.778 135.011 257.915 134.124 260.145 134.121H471.471C473.7 134.124 475.837 135.011 477.414 136.587C478.99 138.163 479.877 140.3 479.879 142.529V309.573Z" fill="#3F3D56"/>
</g>
<defs>
<clipPath id="clip0_1111_106">
<rect width="450" height="277.533" fill="white" transform="translate(31 133)"/>
</clipPath>
</defs>
</svg>
