<svg width="512" height="512" viewBox="0 0 512 512" fill="none" xmlns="http://www.w3.org/2000/svg">
<rect width="512" height="512" fill="#1F2641"/>
<g clip-path="url(#clip0_1111_106)">
<path d="M138.16 368.322C165.599 393.205 201.323 406.974 238.365 406.941V408.33C200.979 408.363 164.921 394.466 137.227 369.352C137.091 369.228 137.01 369.055 137.001 368.872C136.992 368.688 137.056 368.508 137.18 368.372C137.303 368.235 137.476 368.154 137.66 368.144C137.843 368.135 138.023 368.199 138.16 368.322ZM136.556 370.093C164.434 395.374 200.731 409.363 238.365 409.33C264.188 409.343 289.586 402.76 312.151 390.205C334.715 377.651 353.698 359.54 367.301 337.592C367.419 337.403 367.498 337.192 367.535 336.973C367.572 336.753 367.565 336.528 367.514 336.311C367.464 336.094 367.371 335.889 367.241 335.708C367.111 335.527 366.947 335.373 366.758 335.255C366.569 335.138 366.358 335.058 366.138 335.022C365.918 334.986 365.693 334.994 365.476 335.045C365.259 335.096 365.055 335.189 364.874 335.319C364.693 335.449 364.54 335.614 364.422 335.804C337.129 379.724 290.008 405.941 238.365 405.941H238.364C201.571 405.974 166.086 392.298 138.832 367.582L138.83 367.58C138.497 367.279 138.058 367.123 137.609 367.146C137.161 367.168 136.74 367.368 136.439 367.7C136.137 368.033 135.98 368.472 136.002 368.92C136.024 369.369 136.223 369.79 136.555 370.092L136.556 370.093Z" fill="#F5F5FF" stroke="#F5F5FF" stroke-width="2"/>
<path d="M353 335.524L353.737 337.749L367.528 334.854L370.154 346L373 345.574L369.798 332L353 335.524Z" fill="#F5F5FF"/>
<path d="M148.688 365L148.753 367.448L136.692 367.754L137.88 379.761L135.442 380L134 365.376L148.688 365Z" fill="#F5F5FF"/>
<path d="M169.069 242.629V317.43C169.069 317.677 169.02 317.922 168.926 318.15C168.831 318.379 168.693 318.586 168.518 318.761C168.343 318.936 168.136 319.075 167.907 319.169C167.679 319.264 167.434 319.313 167.187 319.313H40.2074C40.117 319.314 40.0267 319.307 39.9375 319.292C39.4896 319.227 39.08 319.004 38.7836 318.662C38.4873 318.32 38.3242 317.882 38.3242 317.43V242.629C38.3241 242.13 38.5222 241.651 38.8752 241.298C39.2281 240.945 39.7069 240.746 40.2061 240.746H167.186C167.433 240.746 167.678 240.795 167.906 240.889C168.134 240.984 168.342 241.122 168.517 241.297C168.692 241.472 168.831 241.679 168.925 241.908C169.02 242.136 169.069 242.381 169.069 242.628V242.629Z" fill="#E6E6E6"/>
<path d="M70.3321 285.221C79.4567 285.221 86.8536 277.824 86.8536 268.7C86.8536 259.575 79.4567 252.178 70.3321 252.178C61.2075 252.178 53.8105 259.575 53.8105 268.7C53.8105 277.824 61.2075 285.221 70.3321 285.221Z" fill="#6C63FF"/>
<path d="M122.142 319.613H41.0919C40.9905 319.614 40.8891 319.606 40.7891 319.589L79.1218 253.191C79.3557 252.777 79.6953 252.433 80.1057 252.194C80.5161 251.955 80.9827 251.829 81.4578 251.829C81.9329 251.829 82.3995 251.955 82.8099 252.194C83.2203 252.433 83.5599 252.777 83.7938 253.191L109.52 297.749L110.752 299.881L122.142 319.613Z" fill="#3F3D56"/>
<path opacity="0.2" d="M122.141 319.613H94.4688L108.053 299.881L109.031 298.46L109.519 297.749L110.752 299.881L122.141 319.613Z" fill="black"/>
<path d="M167.269 319.613H97.168L110.752 299.881L111.73 298.46L129.431 272.746C130.592 271.06 133.384 270.955 134.748 272.428C134.84 272.528 134.925 272.634 135.003 272.746L167.269 319.613Z" fill="#3F3D56"/>
<path d="M176.213 237.905C175.791 236.74 175.022 235.732 174.008 235.019C172.994 234.306 171.785 233.923 170.546 233.921H37.021C36.2302 233.921 35.4471 234.076 34.7165 234.379C33.9859 234.681 33.322 235.125 32.7628 235.684C32.2037 236.243 31.7602 236.907 31.4577 237.637C31.1552 238.368 30.9997 239.151 31 239.942V345.487C31.0023 347.083 31.6373 348.613 32.766 349.742C33.8947 350.87 35.4248 351.505 37.021 351.508H170.546C172.142 351.505 173.672 350.87 174.801 349.742C175.929 348.613 176.564 347.083 176.567 345.487V239.942C176.568 239.248 176.448 238.558 176.213 237.905ZM175.858 345.487C175.857 346.895 175.296 348.245 174.3 349.241C173.305 350.237 171.954 350.798 170.546 350.799H37.021C35.6125 350.798 34.2622 350.237 33.2663 349.241C32.2703 348.245 31.71 346.895 31.7083 345.487V239.942C31.71 238.533 32.2703 237.183 33.2663 236.187C34.2622 235.191 35.6125 234.631 37.021 234.629H170.546C171.954 234.631 173.305 235.191 174.3 236.187C175.296 237.183 175.857 238.533 175.858 239.942V345.487Z" fill="#3F3D56"/>
<path d="M469.132 146.783V265.167C469.133 265.559 469.056 265.946 468.906 266.308C468.756 266.669 468.537 266.998 468.26 267.275C467.984 267.551 467.655 267.771 467.294 267.921C466.933 268.071 466.545 268.148 466.154 268.148H265.187C265.043 268.149 264.901 268.138 264.759 268.115C264.051 268.013 263.402 267.659 262.933 267.117C262.464 266.576 262.206 265.884 262.206 265.167V146.783C262.206 146.392 262.283 146.004 262.432 145.643C262.582 145.281 262.801 144.952 263.078 144.676C263.355 144.399 263.683 144.179 264.044 144.029C264.406 143.88 264.793 143.802 265.185 143.802H466.152C466.543 143.802 466.931 143.879 467.292 144.029C467.654 144.178 467.982 144.398 468.259 144.674C468.536 144.951 468.755 145.279 468.905 145.641C469.055 146.002 469.132 146.39 469.132 146.781V146.783Z" fill="#E6E6E6"/>
<path d="M312.864 214.191C327.305 214.191 339.012 202.485 339.012 188.043C339.012 173.602 327.305 161.895 312.864 161.895C298.423 161.895 286.716 173.602 286.716 188.043C286.716 202.485 298.423 214.191 312.864 214.191Z" fill="#6C63FF"/>
<path d="M394.862 268.623H266.587C266.426 268.625 266.266 268.612 266.107 268.585L326.776 163.498C327.146 162.844 327.683 162.299 328.333 161.921C328.983 161.542 329.721 161.342 330.473 161.342C331.225 161.342 331.963 161.542 332.613 161.921C333.262 162.299 333.8 162.844 334.17 163.498L374.886 234.019L376.837 237.394L394.862 268.623Z" fill="#3F3D56"/>
<path opacity="0.2" d="M394.862 268.622H351.066L372.566 237.394L374.113 235.144L374.887 234.019L376.837 237.394L394.862 268.622Z" fill="black"/>
<path d="M466.286 268.623H355.338L376.837 237.394L378.385 235.144L406.4 194.447C408.237 191.78 412.656 191.614 414.815 193.944C414.96 194.103 415.095 194.271 415.218 194.447L466.286 268.623Z" fill="#3F3D56"/>
<path d="M480.44 139.306C479.773 137.461 478.555 135.866 476.95 134.738C475.346 133.61 473.433 133.003 471.471 133H260.145C258.893 133 257.654 133.246 256.497 133.724C255.341 134.203 254.29 134.905 253.405 135.79C252.52 136.675 251.818 137.726 251.34 138.882C250.861 140.038 250.615 141.278 250.615 142.529V309.573C250.619 312.099 251.624 314.521 253.41 316.307C255.197 318.093 257.618 319.098 260.145 319.102H471.471C473.997 319.098 476.419 318.093 478.205 316.307C479.992 314.521 480.997 312.099 481 309.573V142.529C481.002 141.431 480.813 140.34 480.44 139.306ZM479.879 309.573C479.877 311.802 478.99 313.939 477.414 315.515C475.837 317.091 473.7 317.978 471.471 317.981H260.145C257.915 317.978 255.778 317.091 254.202 315.515C252.626 313.939 251.739 311.802 251.736 309.573V142.529C251.739 140.3 252.626 138.163 254.202 136.587C255.778 135.011 257.915 134.124 260.145 134.121H471.471C473.7 134.124 475.837 135.011 477.414 136.587C478.99 138.163 479.877 140.3 479.879 142.529V309.573Z" fill="#3F3D56"/>
</g>
<defs>
<clipPath id="clip0_1111_106">
<rect width="450" height="277.533" fill="white" transform="translate(31 133)"/>
</clipPath>
</defs>
</svg>
